<mxfile host="app.diagrams.net" agent="Mozilla/5.0 (X11; Linux x86_64; rv:139.0) Gecko/20100101 Firefox/139.0" version="27.1.5">
  <diagram name="Page-1" id="f3uhquZISNhwGD0H_4T6">
    <mxGraphModel dx="647" dy="958" grid="1" gridSize="10" guides="1" tooltips="1" connect="1" arrows="1" fold="1" page="1" pageScale="1" pageWidth="850" pageHeight="1100" math="0" shadow="0">
      <root>
        <mxCell id="0" />
        <mxCell id="1" parent="0" />
        <mxCell id="mLOzx1hUAFcmSXRvfX48-1" value="&lt;div&gt;&lt;code class=&quot;whitespace-pre!&quot;&gt;&lt;span&gt;&lt;span&gt;«&lt;/span&gt;&lt;span&gt;&lt;span class=&quot;hljs-keyword&quot;&gt;abstract&lt;/span&gt;&lt;/span&gt;&lt;span&gt;»&lt;/span&gt;&lt;/span&gt;&lt;/code&gt;&lt;/div&gt;Action" style="swimlane;fontStyle=1;align=center;verticalAlign=top;childLayout=stackLayout;horizontal=1;startSize=40;horizontalStack=0;resizeParent=1;resizeParentMax=0;resizeLast=0;collapsible=1;marginBottom=0;whiteSpace=wrap;html=1;" parent="1" vertex="1">
          <mxGeometry x="160" y="200" width="160" height="74" as="geometry" />
        </mxCell>
        <mxCell id="mLOzx1hUAFcmSXRvfX48-3" value="" style="line;strokeWidth=1;fillColor=none;align=left;verticalAlign=middle;spacingTop=-1;spacingLeft=3;spacingRight=3;rotatable=0;labelPosition=right;points=[];portConstraint=eastwest;strokeColor=inherit;" parent="mLOzx1hUAFcmSXRvfX48-1" vertex="1">
          <mxGeometry y="40" width="160" height="8" as="geometry" />
        </mxCell>
        <mxCell id="mLOzx1hUAFcmSXRvfX48-4" value="+&amp;nbsp;&lt;i&gt;execute(rgb, depth)&lt;/i&gt;" style="text;strokeColor=none;fillColor=none;align=left;verticalAlign=top;spacingLeft=4;spacingRight=4;overflow=hidden;rotatable=0;points=[[0,0.5],[1,0.5]];portConstraint=eastwest;whiteSpace=wrap;html=1;" parent="mLOzx1hUAFcmSXRvfX48-1" vertex="1">
          <mxGeometry y="48" width="160" height="26" as="geometry" />
        </mxCell>
        <mxCell id="mLOzx1hUAFcmSXRvfX48-5" value="ShowImageAction" style="swimlane;fontStyle=1;align=center;verticalAlign=top;childLayout=stackLayout;horizontal=1;startSize=26;horizontalStack=0;resizeParent=1;resizeParentMax=0;resizeLast=0;collapsible=1;marginBottom=0;whiteSpace=wrap;html=1;" parent="1" vertex="1">
          <mxGeometry x="40" y="330" width="160" height="70" as="geometry" />
        </mxCell>
        <mxCell id="mLOzx1hUAFcmSXRvfX48-7" value="" style="line;strokeWidth=1;fillColor=none;align=left;verticalAlign=middle;spacingTop=-1;spacingLeft=3;spacingRight=3;rotatable=0;labelPosition=right;points=[];portConstraint=eastwest;strokeColor=inherit;" parent="mLOzx1hUAFcmSXRvfX48-5" vertex="1">
          <mxGeometry y="26" width="160" height="8" as="geometry" />
        </mxCell>
        <mxCell id="mLOzx1hUAFcmSXRvfX48-8" value="+ execute(rgb, depth)" style="text;strokeColor=none;fillColor=none;align=left;verticalAlign=top;spacingLeft=4;spacingRight=4;overflow=hidden;rotatable=0;points=[[0,0.5],[1,0.5]];portConstraint=eastwest;whiteSpace=wrap;html=1;" parent="mLOzx1hUAFcmSXRvfX48-5" vertex="1">
          <mxGeometry y="34" width="160" height="36" as="geometry" />
        </mxCell>
        <mxCell id="mLOzx1hUAFcmSXRvfX48-10" value="ZMQPublishAction" style="swimlane;fontStyle=1;align=center;verticalAlign=top;childLayout=stackLayout;horizontal=1;startSize=26;horizontalStack=0;resizeParent=1;resizeParentMax=0;resizeLast=0;collapsible=1;marginBottom=0;whiteSpace=wrap;html=1;" parent="1" vertex="1">
          <mxGeometry x="240" y="330" width="290" height="100" as="geometry" />
        </mxCell>
        <mxCell id="mLOzx1hUAFcmSXRvfX48-12" value="" style="line;strokeWidth=1;fillColor=none;align=left;verticalAlign=middle;spacingTop=-1;spacingLeft=3;spacingRight=3;rotatable=0;labelPosition=right;points=[];portConstraint=eastwest;strokeColor=inherit;" parent="mLOzx1hUAFcmSXRvfX48-10" vertex="1">
          <mxGeometry y="26" width="290" height="8" as="geometry" />
        </mxCell>
        <mxCell id="mLOzx1hUAFcmSXRvfX48-13" value="&lt;div&gt;+ execute(rgb, depth)&lt;/div&gt;&lt;div&gt;+ start_discovery_server(port, response_message)&lt;/div&gt;&lt;div&gt;+ set_width_height(width, height)&lt;/div&gt;&lt;div&gt;+ set_config(config: CameraConfig)&lt;/div&gt;" style="text;strokeColor=none;fillColor=none;align=left;verticalAlign=top;spacingLeft=4;spacingRight=4;overflow=hidden;rotatable=0;points=[[0,0.5],[1,0.5]];portConstraint=eastwest;whiteSpace=wrap;html=1;" parent="mLOzx1hUAFcmSXRvfX48-10" vertex="1">
          <mxGeometry y="34" width="290" height="66" as="geometry" />
        </mxCell>
        <mxCell id="mLOzx1hUAFcmSXRvfX48-15" value="ActionPipeline" style="swimlane;fontStyle=1;align=center;verticalAlign=top;childLayout=stackLayout;horizontal=1;startSize=26;horizontalStack=0;resizeParent=1;resizeParentMax=0;resizeLast=0;collapsible=1;marginBottom=0;whiteSpace=wrap;html=1;" parent="1" vertex="1">
          <mxGeometry x="540" y="200" width="150" height="110" as="geometry" />
        </mxCell>
        <mxCell id="mLOzx1hUAFcmSXRvfX48-16" value="- actions: List" style="text;strokeColor=none;fillColor=none;align=left;verticalAlign=top;spacingLeft=4;spacingRight=4;overflow=hidden;rotatable=0;points=[[0,0.5],[1,0.5]];portConstraint=eastwest;whiteSpace=wrap;html=1;" parent="mLOzx1hUAFcmSXRvfX48-15" vertex="1">
          <mxGeometry y="26" width="150" height="26" as="geometry" />
        </mxCell>
        <mxCell id="mLOzx1hUAFcmSXRvfX48-17" value="" style="line;strokeWidth=1;fillColor=none;align=left;verticalAlign=middle;spacingTop=-1;spacingLeft=3;spacingRight=3;rotatable=0;labelPosition=right;points=[];portConstraint=eastwest;strokeColor=inherit;" parent="mLOzx1hUAFcmSXRvfX48-15" vertex="1">
          <mxGeometry y="52" width="150" height="8" as="geometry" />
        </mxCell>
        <mxCell id="mLOzx1hUAFcmSXRvfX48-18" value="&lt;div&gt;+ add_action()&lt;/div&gt;&lt;div&gt;+ execute_all()&lt;/div&gt;" style="text;strokeColor=none;fillColor=none;align=left;verticalAlign=top;spacingLeft=4;spacingRight=4;overflow=hidden;rotatable=0;points=[[0,0.5],[1,0.5]];portConstraint=eastwest;whiteSpace=wrap;html=1;" parent="mLOzx1hUAFcmSXRvfX48-15" vertex="1">
          <mxGeometry y="60" width="150" height="50" as="geometry" />
        </mxCell>
        <mxCell id="mLOzx1hUAFcmSXRvfX48-22" value="1" style="endArrow=open;html=1;endSize=12;startArrow=diamondThin;startSize=14;startFill=0;edgeStyle=orthogonalEdgeStyle;align=left;verticalAlign=bottom;rounded=0;entryX=1.004;entryY=0.247;entryDx=0;entryDy=0;entryPerimeter=0;exitX=-0.008;exitY=1.115;exitDx=0;exitDy=0;exitPerimeter=0;" parent="1" source="mLOzx1hUAFcmSXRvfX48-16" target="mLOzx1hUAFcmSXRvfX48-4" edge="1">
          <mxGeometry x="-0.7663" y="-7" relative="1" as="geometry">
            <mxPoint x="630" y="250" as="sourcePoint" />
            <mxPoint x="560" y="254.5" as="targetPoint" />
            <mxPoint as="offset" />
          </mxGeometry>
        </mxCell>
        <mxCell id="mLOzx1hUAFcmSXRvfX48-23" value="n" style="edgeLabel;html=1;align=center;verticalAlign=middle;resizable=0;points=[];" parent="mLOzx1hUAFcmSXRvfX48-22" vertex="1" connectable="0">
          <mxGeometry x="0.8546" relative="1" as="geometry">
            <mxPoint x="9" y="-10" as="offset" />
          </mxGeometry>
        </mxCell>
        <mxCell id="mLOzx1hUAFcmSXRvfX48-24" value="Extends" style="endArrow=block;endSize=16;endFill=0;html=1;rounded=0;exitX=0.25;exitY=0;exitDx=0;exitDy=0;entryX=0.641;entryY=0.942;entryDx=0;entryDy=0;entryPerimeter=0;" parent="1" source="mLOzx1hUAFcmSXRvfX48-10" target="mLOzx1hUAFcmSXRvfX48-4" edge="1">
          <mxGeometry width="160" relative="1" as="geometry">
            <mxPoint x="330" y="260" as="sourcePoint" />
            <mxPoint x="300" y="280" as="targetPoint" />
          </mxGeometry>
        </mxCell>
        <mxCell id="mLOzx1hUAFcmSXRvfX48-25" value="Extends" style="endArrow=block;endSize=16;endFill=0;html=1;rounded=0;exitX=0.75;exitY=0;exitDx=0;exitDy=0;entryX=0.397;entryY=0.987;entryDx=0;entryDy=0;entryPerimeter=0;" parent="1" source="mLOzx1hUAFcmSXRvfX48-5" target="mLOzx1hUAFcmSXRvfX48-4" edge="1">
          <mxGeometry width="160" relative="1" as="geometry">
            <mxPoint x="360" y="280" as="sourcePoint" />
            <mxPoint x="520" y="280" as="targetPoint" />
          </mxGeometry>
        </mxCell>
      </root>
    </mxGraphModel>
  </diagram>
</mxfile>
